<svg xmlns="http://www.w3.org/2000/svg" viewBox="0 0 45.4 45.4">
<path d="M37.65,23.57a2.63,2.63,0,0,0-1.82-.72,2.56,2.56,0,0,0-1.87.77,2.78,2.78,0,0,0-.8,1.92,2.69,2.69,0,0,0,.75,1.84,2.75,2.75,0,0,0,1.92.8,2.67,2.67,0,0,0,1.8-.73,2.88,2.88,0,0,0,.82-2A2.62,2.62,0,0,0,37.65,23.57Z"/>
<path d="M22.7,0A22.7,22.7,0,1,0,45.4,22.7,22.7,22.7,0,0,0,22.7,0Zm-8,18.17H11.29V30.73H7.69V18.17H4.3v-3H14.68ZM26.35,29.39a6.39,6.39,0,0,1-4.56,1.69,6.43,6.43,0,0,1-4.56-1.69,5.61,5.61,0,0,1,0-7.76A6.47,6.47,0,0,1,21.79,20a6.43,6.43,0,0,1,4.56,1.68,5.58,5.58,0,0,1,0,7.76Zm10.36,1.69a3.78,3.78,0,0,1-3.32-1.54v6.54H30V20.3h3.36v1.24A3.9,3.9,0,0,1,36.64,20a5.08,5.08,0,0,1,3.7,1.47,5.73,5.73,0,0,1,1.57,4.07,5.71,5.71,0,0,1-1.66,4.19A4.69,4.69,0,0,1,36.71,31.08Z"/>
<path d="M21.79,22.8a2.57,2.57,0,0,0-1.89.75,2.89,2.89,0,0,0,0,3.93,2.6,2.6,0,0,0,1.92.75,2.57,2.57,0,0,0,1.87-.75,2.89,2.89,0,0,0,0-3.93A2.59,2.59,0,0,0,21.79,22.8Z"/>
</svg>