<svg id="レイヤー_1" data-name="レイヤー 1" xmlns="http://www.w3.org/2000/svg" viewBox="0 0 50 50"><defs><style>.cls-1{fill:#1c1e1f;}</style></defs><line class="cls-1" x1="2.5" y1="47.5" x2="47.5" y2="2.5"/><path class="cls-1" d="M5.64,53.76a2.51,2.51,0,0,1-1.77-4.27l45-45A2.5,2.5,0,1,1,52.41,8l-45,45A2.5,2.5,0,0,1,5.64,53.76Z" transform="translate(-3.14 -3.76)"/><line class="cls-1" x1="2.5" y1="2.5" x2="47.5" y2="47.5"/><path class="cls-1" d="M50.64,53.76A2.5,2.5,0,0,1,48.87,53L3.87,8A2.5,2.5,0,0,1,7.41,4.49l45,45a2.51,2.51,0,0,1-1.77,4.27Z" transform="translate(-3.14 -3.76)"/></svg>